<svg width="1280" height="720" xmlns="http://www.w3.org/2000/svg" xmlns:xlink="http://www.w3.org/1999/xlink" overflow="hidden"><defs><clipPath id="clip0"><path d="M0 0 1280 0 1280 720 0 720Z" fill-rule="evenodd" clip-rule="evenodd"/></clipPath><clipPath id="clip1"><path d="M571 200 690 200 690 319 571 319Z" fill-rule="evenodd" clip-rule="evenodd"/></clipPath><clipPath id="clip2"><path d="M571 200 690 200 690 319 571 319Z" fill-rule="evenodd" clip-rule="evenodd"/></clipPath><clipPath id="clip3"><path d="M571 200 690 200 690 319 571 319Z" fill-rule="evenodd" clip-rule="evenodd"/></clipPath></defs><g clip-path="url(#clip0)"><rect x="0" y="0" width="1280" height="720" fill="#9DB6DF"/><text fill="#F2F2F2" font-family="Biome,Biome_MSFontService,sans-serif" font-weight="300" font-size="153" transform="translate(347.583 493)">e<tspan x="90.1667" y="0">-</tspan><tspan x="165.667" y="0">Write</tspan></text><path d="M558 258.5C558 212.937 594.937 176 640.5 176 686.063 176 723 212.937 723 258.5 723 304.063 686.063 341 640.5 341 594.937 341 558 304.063 558 258.5Z" fill="#FFFFFF" fill-rule="evenodd"/><g clip-path="url(#clip1)"><g clip-path="url(#clip2)"><g clip-path="url(#clip3)"><path d="M663.225 290.861 640.912 283.176 640.789 283.176 631.864 280.077 673.638 224.916 663.225 290.861ZM635.334 286.647 627.153 294.828 629.384 284.664 635.334 286.647 635.334 286.647ZM625.418 280.325C625.17 280.573 625.046 280.945 624.922 281.317L624.55 282.928 622.071 294.208 616.121 276.854 662.481 232.229 626.905 278.466 625.418 280.325ZM589.594 265.698 662.233 227.023 612.526 273.507 589.594 265.698ZM679.092 214.131C678.348 213.511 677.232 213.511 676.365 214.007L582.28 263.962C581.412 264.458 580.917 265.326 580.917 266.318 580.917 267.309 581.66 268.177 582.528 268.425L608.311 277.226 611.534 278.342 612.278 280.449 619.964 303.505 619.964 303.629 619.964 303.753C620.211 304.497 620.955 305.117 621.823 305.365 622.691 305.612 623.558 305.365 624.178 304.745L624.302 304.621 625.046 303.877 640.665 288.506 664.465 296.688C665.208 296.935 665.952 296.811 666.572 296.44 667.192 296.068 667.688 295.448 667.811 294.704L680.207 216.61C680.331 215.495 679.835 214.627 679.092 214.131Z" fill="#DAE3F3"/></g></g></g></g></svg>